<svg width="24" height="24" viewBox="0 0 24 24" fill="none" xmlns="http://www.w3.org/2000/svg" aria-hidden="true">
  <path d="M10.85 3.25C6.35 3.25 2.75 6.7 2.75 10.95C2.75 15.25 6.25 18.55 10.45 18.55H11.25C12.2 18.55 12.85 19.2 12.85 20.05C12.85 20.75 13.35 21.25 14.15 21.25C18.05 21.25 21.25 17.65 21.25 12.95C21.25 7.65 16.55 3.25 10.85 3.25Z" stroke="currentColor" stroke-width="1.7" stroke-linecap="round" stroke-linejoin="round"/>
  <path d="M7.25 10.25C7.94 10.25 8.5 9.69 8.5 9C8.5 8.31 7.94 7.75 7.25 7.75C6.56 7.75 6 8.31 6 9C6 9.69 6.56 10.25 7.25 10.25Z" stroke="currentColor" stroke-width="1.5"/>
  <path d="M11.25 8.25C11.94 8.25 12.5 7.69 12.5 7C12.5 6.31 11.94 5.75 11.25 5.75C10.56 5.75 10 6.31 10 7C10 7.69 10.56 8.25 11.25 8.25Z" stroke="currentColor" stroke-width="1.5"/>
  <path d="M15.5 10.25C16.19 10.25 16.75 9.69 16.75 9C16.75 8.31 16.19 7.75 15.5 7.75C14.81 7.75 14.25 8.31 14.25 9C14.25 9.69 14.81 10.25 15.5 10.25Z" stroke="currentColor" stroke-width="1.5"/>
  <path d="M8.25 14.25C8.94 14.25 9.5 13.69 9.5 13C9.5 12.31 8.94 11.75 8.25 11.75C7.56 11.75 7 12.31 7 13C7 13.69 7.56 14.25 8.25 14.25Z" stroke="currentColor" stroke-width="1.5"/>
  <path d="M15.2 20.6C15.75 17.95 17.35 15 20.35 12.1L21.9 10.6C22.35 10.15 22.35 9.45 21.9 9C21.45 8.55 20.75 8.55 20.3 9L18.8 10.55C15.9 13.55 14.05 16.25 13.4 19.15C13.25 19.85 13.85 20.75 15.2 20.6Z" fill="#07131c" stroke="currentColor" stroke-width="1.7" stroke-linecap="round" stroke-linejoin="round"/>
  <path d="M17.05 13.8L19.05 15.8" stroke="currentColor" stroke-width="1.7" stroke-linecap="round"/>
</svg>
