<svg xmlns="http://www.w3.org/2000/svg" width="240" height="176" viewBox="0 0 240 176" fill="none"><defs><filter id="aura" x="0" y="0" width="240" height="176" filterUnits="userSpaceOnUse"><feGaussianBlur stdDeviation="8" /></filter><filter id="softShadow" x="0" y="0" width="240" height="176" filterUnits="userSpaceOnUse"><feDropShadow dx="0" dy="2" stdDeviation="4" flood-color="#000000" flood-opacity="0.22"/></filter><radialGradient id="body" cx="42%" cy="38%" r="70%"><stop offset="0" stop-color="white" stop-opacity="0.14"/><stop offset="0.2" stop-color="currentColor" stop-opacity="0.98"/><stop offset="1" stop-color="currentColor" stop-opacity="0.92"/></radialGradient><linearGradient id="rim" x1="0" y1="0" x2="1" y2="1"><stop offset="0" stop-color="white" stop-opacity="0.55"/><stop offset="0.45" stop-color="white" stop-opacity="0.18"/><stop offset="1" stop-color="black" stop-opacity="0.16"/></linearGradient><linearGradient id="highlight" x1="0.15" y1="0.08" x2="0.9" y2="0.9"><stop offset="0" stop-color="white" stop-opacity="0.9"/><stop offset="1" stop-color="white" stop-opacity="0"/></linearGradient><clipPath id="clip"><path d="M 189.2,93.8 Q 186.4,101.7 181.1,107.0 Q 175.8,112.2 174.0,116.9 Q 172.3,121.7 158.7,126.4 Q 145.1,131.1 132.5,132.5 Q 120.0,133.9 109.0,134.9 Q 98.0,135.9 88.7,128.9 Q 79.4,121.9 72.4,117.2 Q 65.4,112.4 56.6,107.4 Q 47.7,102.5 46.2,94.3 Q 44.6,86.0 47.7,77.6 Q 50.8,69.1 57.7,63.0 Q 64.6,56.8 70.2,51.1 Q 75.7,45.4 86.4,41.7 Q 97.0,37.9 108.5,36.9 Q 120.0,36.0 133.4,37.6 Q 146.8,39.3 154.0,45.6 Q 161.3,51.9 176.1,54.9 Q 191.0,57.9 189.4,63.6 Q 187.8,69.3 189.9,77.7 Q 192.0,86.0 189.2,93.8 Z"/></clipPath></defs><g filter="url(#aura)" opacity="0.22"><path d="M 193.4,93.5 Q 197.1,101.0 185.4,109.1 Q 173.7,117.1 166.2,120.8 Q 158.7,124.5 146.0,132.0 Q 133.3,139.5 120.6,134.4 Q 107.8,129.4 97.0,127.1 Q 86.3,124.8 76.6,123.6 Q 67.0,122.4 58.4,113.9 Q 49.7,105.4 49.8,95.7 Q 49.9,86.0 47.5,77.1 Q 45.1,68.2 50.5,62.5 Q 55.9,56.9 69.8,49.0 Q 83.6,41.1 95.7,43.2 Q 107.8,45.3 121.4,40.5 Q 135.0,35.7 145.9,39.5 Q 156.7,43.3 172.8,50.0 Q 189.0,56.8 187.3,63.2 Q 185.7,69.7 187.7,77.9 Q 189.6,86.0 193.4,93.5 Z" fill="currentColor"/></g><g filter="url(#softShadow)"><path d="M 189.2,93.8 Q 186.4,101.7 181.1,107.0 Q 175.8,112.2 174.0,116.9 Q 172.3,121.7 158.7,126.4 Q 145.1,131.1 132.5,132.5 Q 120.0,133.9 109.0,134.9 Q 98.0,135.9 88.7,128.9 Q 79.4,121.9 72.4,117.2 Q 65.4,112.4 56.6,107.4 Q 47.7,102.5 46.2,94.3 Q 44.6,86.0 47.7,77.6 Q 50.8,69.1 57.7,63.0 Q 64.6,56.8 70.2,51.1 Q 75.7,45.4 86.4,41.7 Q 97.0,37.9 108.5,36.9 Q 120.0,36.0 133.4,37.6 Q 146.8,39.3 154.0,45.6 Q 161.3,51.9 176.1,54.9 Q 191.0,57.9 189.4,63.6 Q 187.8,69.3 189.9,77.7 Q 192.0,86.0 189.2,93.8 Z" fill="url(#body)"/><path d="M 189.2,93.8 Q 186.4,101.7 181.1,107.0 Q 175.8,112.2 174.0,116.9 Q 172.3,121.7 158.7,126.4 Q 145.1,131.1 132.5,132.5 Q 120.0,133.9 109.0,134.9 Q 98.0,135.9 88.7,128.9 Q 79.4,121.9 72.4,117.2 Q 65.4,112.4 56.6,107.4 Q 47.7,102.5 46.2,94.3 Q 44.6,86.0 47.7,77.6 Q 50.8,69.1 57.7,63.0 Q 64.6,56.8 70.2,51.1 Q 75.7,45.4 86.4,41.7 Q 97.0,37.9 108.5,36.9 Q 120.0,36.0 133.4,37.6 Q 146.8,39.3 154.0,45.6 Q 161.3,51.9 176.1,54.9 Q 191.0,57.9 189.4,63.6 Q 187.8,69.3 189.9,77.7 Q 192.0,86.0 189.2,93.8 Z" stroke="url(#rim)" stroke-width="3"/></g><g clip-path="url(#clip)"><path d="M 59.2 58.2 C 88.8 40.4, 126.2 41.8, 155.1 52.4" stroke="url(#highlight)" stroke-width="6" stroke-linecap="round" opacity="0.95"/><path d="M 47.5 100.4 C 68.5 122.0, 108.3 128.2, 145.0 119.6" stroke="white" stroke-opacity="0.12" stroke-width="4" stroke-linecap="round"/></g></svg>